# xmcd
#
# Track frame offsets: 
#        150
#        11740
#        21156
#        31636
#        51831
#        67942
#        80321
#        92870
#        112473
#        126199
#        135469
#        144831
#        164422
#        180281
#        206097
#
# Disc length: 2812 seconds
#
# Revision: 2
# Processed by: cddbd v1.5.2PL0 Copyright (c) Steve Scherf et al.
# Submitted via: ExactAudioCopy v1.3
#
DISCID=c50afa0f
DTITLE=Willie Nelson - Playlist: The Very Best of Willie Nelson
DYEAR=2008
DGENRE=Country
TTITLE0=On The Road Again
TTITLE1=If You've Got the Money I've Got the Time
TTITLE2=Blue Eyes Crying in the Rain
TTITLE3=Angel Flying Too Close to the Ground
TTITLE4=The Pilgrim: Chapter 33
TTITLE5=I'm Movin' On (with Hank Snow)
TTITLE6=Big River (with Waylon Jennings, Johnny Cash and Kris Kristoff
TTITLE6=erson)
TTITLE7=Georgia On My Mind
TTITLE8=If You Can Touch Her At All (with Waylon Jennings)
TTITLE9=Something to Brag About (with Mary Kay Place)
TTITLE10=Live Fast, Love Hard, Die Young (with Faron Young)
TTITLE11=Last Thing I Needed The First Thing This Morning
TTITLE12=Always On My Mind
TTITLE13=Sweet Memories
TTITLE14=Data Track
EXTD=
EXTT0=
EXTT1=
EXTT2=
EXTT3=
EXTT4=
EXTT5=
EXTT6=
EXTT7=
EXTT8=
EXTT9=
EXTT10=
EXTT11=
EXTT12=
EXTT13=
EXTT14=
PLAYORDER=
